<?xml version="1.0" encoding="UTF-8"?>
<svg version="1.2" xmlns="http://www.w3.org/2000/svg" viewBox="0 0 1024 1024" baseProfile="tiny-ps">
  <title>GetSmartAlex Logo</title>
  <rect width="1024" height="1024" fill="#FEFEFE"/>
  <g transform="scale(1.024)">
    <path d="M0 0 C15.54771965 11.94308074 23.85482653 29.59703471 26.52320671 48.70929146 C26.97493833 53.39231699 26.86317562 58.10032396 26.84790039 62.80053711 C26.84804642 63.98174133 26.84819244 65.16294556 26.8483429 66.37994385 C26.84776782 69.6005186 26.84277106 72.82104924 26.83576894 76.04161525 C26.82949489 79.41418053 26.8289284 82.78674679 26.82774353 86.15931702 C26.82464212 92.53750788 26.81644485 98.9156815 26.80639404 105.29386479 C26.79519585 112.55869907 26.78971313 119.8235342 26.78469861 127.08837497 C26.77426119 142.02507366 26.75593058 156.96174995 26.734375 171.8984375 C17.494375 171.8984375 8.254375 171.8984375 -1.265625 171.8984375 C-1.925625 161.6684375 -2.585625 151.4384375 -3.265625 140.8984375 C-5.245625 144.1984375 -7.225625 147.4984375 -9.265625 150.8984375 C-18.95480705 164.14096688 -33.35809582 172.55752541 -49.3671875 175.4609375 C-71.83192918 177.98203076 -93.93928883 175.97431385 -112.515625 162.2109375 C-123.06515228 153.30659374 -130.14060504 140.5904197 -131.47265625 126.74682617 C-131.56830488 124.5222482 -131.59490376 122.31247943 -131.578125 120.0859375 C-131.56966553 118.90245728 -131.56966553 118.90245728 -131.56103516 117.69506836 C-131.29670867 104.92495834 -126.77207773 92.98316796 -117.99609375 83.5078125 C-95.20463679 62.31124305 -64.49476893 62.57040528 -35.35327148 62.7611084 C-31.83970572 62.78185861 -28.32610985 62.79076339 -24.8125 62.80078125 C-17.96346946 62.82199631 -11.11455595 62.85596396 -4.265625 62.8984375 C-4.7068282 59.35257711 -5.1644562 55.80902107 -5.625 52.265625 C-5.8113501 50.7655188 -5.8113501 50.7655188 -6.00146484 49.23510742 C-6.9056393 42.36281291 -8.09441465 36.58439633 -12.265625 30.8984375 C-12.79285156 30.17785156 -13.32007813 29.45726562 -13.86328125 28.71484375 C-21.67267441 19.01981124 -32.20604743 14.99161969 -44.39990234 13.66650391 C-58.12097156 12.68265886 -71.16374838 15.33955484 -82.265625 23.8984375 C-89.90460206 31.03432768 -93.42399858 37.95274502 -96.265625 47.8984375 C-106.495625 47.8984375 -116.725625 47.8984375 -127.265625 47.8984375 C-125.67001642 30.34674313 -119.71680052 17.55759786 -106.265625 5.8984375 C-76.71724977 -17.76942226 -31.90199883 -20.53023369 0 0 Z " fill="#040335" transform="translate(313.265625,452.1015625)"/>
    <path d="M0 0 C2.58109857 2.24907364 5.04622231 4.57364642 7.48828125 6.97265625 C8.25140625 7.71128906 9.01453125 8.44992187 9.80078125 9.2109375 C30.59259255 30.6885898 31.48828125 55.71978662 31.48828125 84.97265625 C-15.70171875 84.97265625 -62.89171875 84.97265625 -111.51171875 84.97265625 C-108.5838049 105.46805321 -103.92312743 122.69285127 -87.01171875 135.66015625 C-72.223658 145.22101728 -56.49805311 147.43629062 -39.15039062 144.58447266 C-26.20192827 141.73450061 -16.67320889 134.54864516 -9.265625 123.78125 C-7.25783167 120.56609765 -5.39236929 117.2637947 -3.51171875 113.97265625 C6.38828125 113.97265625 16.28828125 113.97265625 26.48828125 113.97265625 C20.25390687 134.75390419 7.81675384 152.45142765 -11.51171875 162.97265625 C-32.11725235 173.4062057 -58.44090502 176.03398939 -80.65625 169.36328125 C-102.81255688 161.78364091 -119.85181465 147.06537987 -131.51171875 126.97265625 C-132.01574219 126.13089844 -132.51976562 125.28914062 -133.0390625 124.421875 C-145.7105657 101.50532666 -145.15895631 69.52428554 -138.51171875 44.97265625 C-133.86227143 29.5020753 -125.85649557 17.2189256 -114.51171875 5.97265625 C-113.81691406 5.24433594 -113.12210937 4.51601563 -112.40625 3.765625 C-84.20626263 -23.88890807 -30.34667007 -24.49443509 0 0 Z " fill="#030234" transform="translate(616.51171875,456.02734375)"/>
    <path d="M0 0 C1.35476979 0.00373811 2.70954232 0.0065813 4.0643158 0.00857544 C7.60049123 0.01614918 11.13649789 0.03574246 14.67260742 0.0579834 C18.29278278 0.07857807 21.91298586 0.08760605 25.53320312 0.09765625 C32.61465166 0.11899542 39.69598659 0.15305405 46.77734375 0.1953125 C46.79631123 1.95121124 46.80982472 3.70716944 46.82104492 5.46313477 C46.83321297 6.92989403 46.83321297 6.92989403 46.84562683 8.42628479 C46.51667538 21.76598302 39.54322449 36.38812843 30.77734375 46.1953125 C30.23207031 46.82179688 29.68679688 47.44828125 29.125 48.09375 C20.34009199 57.56078027 8.54009157 62.82249999 -4.30078125 63.578125 C-16.82497845 63.99199933 -28.42175035 63.19043487 -38.47265625 54.8984375 C-44.59674447 48.93838736 -48.23214837 43.05445772 -48.47265625 34.3828125 C-48.20217373 23.14088285 -44.64012937 15.89467294 -36.55859375 8.0234375 C-32.540496 4.87883926 -28.10972372 3.47904154 -23.22265625 2.1953125 C-21.96904297 1.85306641 -20.71542969 1.51082031 -19.42382812 1.15820312 C-12.9896036 -0.25402069 -6.55723343 -0.05255857 0 0 Z " fill="#FDFDFD" transform="translate(262.22265625,538.8046875)"/>
    <path d="M0 0 C9.77911327 7.54658259 16.3825398 16.8467854 19.4296875 28.875 C19.9246875 35.31 19.9246875 35.31 20.4296875 41.875 C-16.8603125 41.875 -54.1503125 41.875 -92.5703125 41.875 C-92.5703125 30.31828134 -88.75099177 19.94726485 -81.5703125 10.875 C-80.97476563 10.06289063 -80.37921875 9.25078125 -79.765625 8.4140625 C-60.14970211 -14.27339279 -23.8350479 -16.40869766 0 0 Z " fill="#FDFDFD" transform="translate(597.5703125,475.125)"/>
  </g>
</svg>
